# xmcd
#
# Track frame offsets: 
#        150
#        22565
#        37245
#        79063
#        88238
#        99275
#        119313
#        131918
#        143483
#
# Disc length: 2079 seconds
#
# Revision: 0
# Processed by: cddbd v1.5.2PL0 Copyright (c) Steve Scherf et al.
# Submitted via: ExactAudioCopy v0.99pb3
#
DISCID=6c081d09
DTITLE=Roosevelt Sykes - The Honeydripper
DYEAR=1993
DGENRE=Blues
TTITLE0=Miss Ida B.
TTITLE1=Mislead Mother
TTITLE2=Yes Lawd
TTITLE3=I Hate To Be Alone
TTITLE4=Jailbait
TTITLE5=Lonely Day
TTITLE6=Satellite Baby
TTITLE7=Pocketful Of Money
TTITLE8=She Ain't For Nobody
EXTD=
EXTT0=
EXTT1=
EXTT2=
EXTT3=
EXTT4=
EXTT5=
EXTT6=
EXTT7=
EXTT8=
PLAYORDER=
